<svg xmlns="http://www.w3.org/2000/svg" width="760" height="360" viewBox="0 0 760 360" role="img" aria-label="Coordinate grid">
  <rect width="760" height="360" rx="28" fill="#fffdf8"/>
  <rect x="18" y="18" width="724" height="324" rx="24" fill="#f8fafc" stroke="#e5dccd" stroke-width="3"/>
  <g font-family="Inter, Arial, sans-serif">
    <text x="44" y="52" fill="#111827" font-size="24" font-weight="800">Coordinate grid</text>
    <rect x="44" y="98" width="120" height="6" rx="3" fill="#0f766e"/>
  </g>
  <g font-family="Inter, Arial, sans-serif">
    <line x1="100" y1="128" x2="100" y2="300" stroke="#e5e7eb" stroke-width="2"/><line x1="156" y1="128" x2="156" y2="300" stroke="#e5e7eb" stroke-width="2"/><line x1="212" y1="128" x2="212" y2="300" stroke="#e5e7eb" stroke-width="2"/><line x1="268" y1="128" x2="268" y2="300" stroke="#e5e7eb" stroke-width="2"/><line x1="324" y1="128" x2="324" y2="300" stroke="#e5e7eb" stroke-width="2"/><line x1="380" y1="128" x2="380" y2="300" stroke="#e5e7eb" stroke-width="2"/><line x1="436" y1="128" x2="436" y2="300" stroke="#e5e7eb" stroke-width="2"/><line x1="492" y1="128" x2="492" y2="300" stroke="#e5e7eb" stroke-width="2"/><line x1="548" y1="128" x2="548" y2="300" stroke="#e5e7eb" stroke-width="2"/><line x1="604" y1="128" x2="604" y2="300" stroke="#e5e7eb" stroke-width="2"/><line x1="660" y1="128" x2="660" y2="300" stroke="#e5e7eb" stroke-width="2"/>
    <line x1="100" y1="128" x2="660" y2="128" stroke="#e5e7eb" stroke-width="2"/><line x1="100" y1="156" x2="660" y2="156" stroke="#e5e7eb" stroke-width="2"/><line x1="100" y1="184" x2="660" y2="184" stroke="#e5e7eb" stroke-width="2"/><line x1="100" y1="212" x2="660" y2="212" stroke="#e5e7eb" stroke-width="2"/><line x1="100" y1="240" x2="660" y2="240" stroke="#e5e7eb" stroke-width="2"/><line x1="100" y1="268" x2="660" y2="268" stroke="#e5e7eb" stroke-width="2"/><line x1="100" y1="296" x2="660" y2="296" stroke="#e5e7eb" stroke-width="2"/>
    <line x1="100" y1="212" x2="660" y2="212" stroke="#111827" stroke-width="4"/>
    <line x1="380" y1="128" x2="380" y2="300" stroke="#111827" stroke-width="4"/>
    <text x="668" y="218" font-size="20" font-weight="800" fill="#111827">x</text>
    <text x="388" y="124" font-size="20" font-weight="800" fill="#111827">y</text>
    <circle cx="296" cy="124" r="12" fill="#dc2626" stroke="#111827" stroke-width="3"/>
      <text x="314" y="110" font-size="18" font-weight="800" fill="#111827">(-3, 4)</text><circle cx="436" cy="190" r="12" fill="#0f766e" stroke="#111827" stroke-width="3"/>
      <text x="454" y="176" font-size="18" font-weight="800" fill="#111827">(2, 1)</text>
  </g>
</svg>