<svg xmlns="http://www.w3.org/2000/svg" width="960" height="540" viewBox="0 0 960 540" role="img" aria-label="Integer Moves">
  <defs>
    <radialGradient id="glow" cx="78%" cy="30%" r="60%">
      <stop offset="0" stop-color="#f472b6" stop-opacity="0.48"/>
      <stop offset="0.46" stop-color="#f472b6" stop-opacity="0.14"/>
      <stop offset="1" stop-color="#160a16" stop-opacity="0"/>
    </radialGradient>
    <linearGradient id="base" x1="0" x2="1">
      <stop offset="0" stop-color="#160a16"/>
      <stop offset="1" stop-color="#05070a"/>
    </linearGradient>
  </defs>
  <rect width="960" height="540" rx="40" fill="url(#base)"/>
  <rect width="960" height="540" rx="40" fill="url(#glow)"/>
  <g opacity="0.11" stroke="#fff0fb" stroke-width="1">
    <line x1="522" y1="72" x2="522" y2="456"/><line x1="576" y1="72" x2="576" y2="456"/><line x1="630" y1="72" x2="630" y2="456"/><line x1="684" y1="72" x2="684" y2="456"/><line x1="738" y1="72" x2="738" y2="456"/><line x1="792" y1="72" x2="792" y2="456"/><line x1="846" y1="72" x2="846" y2="456"/><line x1="900" y1="72" x2="900" y2="456"/>
    <line x1="496" y1="104" x2="894" y2="104"/><line x1="496" y1="162" x2="894" y2="162"/><line x1="496" y1="220" x2="894" y2="220"/><line x1="496" y1="278" x2="894" y2="278"/><line x1="496" y1="336" x2="894" y2="336"/><line x1="496" y1="394" x2="894" y2="394"/>
  </g>
  <g stroke-linecap="round" stroke-linejoin="round" font-family="Inter, Arial, sans-serif">
      <path d="M548 282 H876" stroke="#fff0fb" stroke-width="9" opacity="0.7"/>
      <g><line x1="594" y1="244" x2="594" y2="320" stroke="#fde68a" stroke-width="8"/><text x="594" y="370" text-anchor="middle" fill="#fff0fb" font-size="30" font-weight="900">-2</text></g><g><line x1="656" y1="244" x2="656" y2="320" stroke="#fde68a" stroke-width="8"/><text x="656" y="370" text-anchor="middle" fill="#fff0fb" font-size="30" font-weight="900">-1</text></g><g><line x1="718" y1="244" x2="718" y2="320" stroke="#f472b6" stroke-width="8"/><text x="718" y="370" text-anchor="middle" fill="#fff0fb" font-size="30" font-weight="900">0</text></g><g><line x1="780" y1="244" x2="780" y2="320" stroke="#fde68a" stroke-width="8"/><text x="780" y="370" text-anchor="middle" fill="#fff0fb" font-size="30" font-weight="900">1</text></g><g><line x1="842" y1="244" x2="842" y2="320" stroke="#fde68a" stroke-width="8"/><text x="842" y="370" text-anchor="middle" fill="#fff0fb" font-size="30" font-weight="900">2</text></g>
      <path d="M594 206 C646 132 734 132 786 206" fill="none" stroke="#f472b6" stroke-width="11"/>
    </g>
  <g font-family="Inter, Arial, sans-serif">
    <text x="72" y="240" fill="#fff0fb" font-size="72" font-weight="950" letter-spacing="-1">Integer Moves</text>
    <rect x="76" y="292" width="136" height="8" rx="4" fill="#f472b6"/>
  </g>
</svg>