<svg xmlns="http://www.w3.org/2000/svg" width="960" height="540" viewBox="0 0 960 540" role="img" aria-label="Data Displays and Variability">
  <defs>
    <radialGradient id="glow33" cx="74%" cy="26%" r="58%">
      <stop offset="0" stop-color="#38bdf8" stop-opacity="0.56"/>
      <stop offset="0.45" stop-color="#38bdf8" stop-opacity="0.12"/>
      <stop offset="1" stop-color="#07111f" stop-opacity="0"/>
    </radialGradient>
    <linearGradient id="shade33" x1="0" x2="1">
      <stop offset="0" stop-color="#07111f"/>
      <stop offset="1" stop-color="#050505"/>
    </linearGradient>
  </defs>
  <rect width="960" height="540" rx="40" fill="url(#shade33)"/>
  <rect width="960" height="540" rx="40" fill="url(#glow33)"/>
  <g opacity="0.14" stroke="white" stroke-width="1">
    <line x1="80" y1="68" x2="80" y2="472"/><line x1="156" y1="68" x2="156" y2="472"/><line x1="232" y1="68" x2="232" y2="472"/><line x1="308" y1="68" x2="308" y2="472"/><line x1="384" y1="68" x2="384" y2="472"/><line x1="460" y1="68" x2="460" y2="472"/><line x1="536" y1="68" x2="536" y2="472"/><line x1="612" y1="68" x2="612" y2="472"/><line x1="688" y1="68" x2="688" y2="472"/><line x1="764" y1="68" x2="764" y2="472"/><line x1="840" y1="68" x2="840" y2="472"/>
    <line x1="76" y1="86" x2="884" y2="86"/><line x1="76" y1="148" x2="884" y2="148"/><line x1="76" y1="210" x2="884" y2="210"/><line x1="76" y1="272" x2="884" y2="272"/><line x1="76" y1="334" x2="884" y2="334"/><line x1="76" y1="396" x2="884" y2="396"/><line x1="76" y1="458" x2="884" y2="458"/>
  </g>
  <g stroke-linecap="round">
      <line x1="452" y1="286" x2="758" y2="286" stroke="white" stroke-width="5" opacity="0.55"/>
      <rect x="490" y="200" width="24" height="86" rx="8" fill="#38bdf8"/><rect x="538" y="154" width="24" height="132" rx="8" fill="#f8d66d"/><rect x="586" y="218" width="24" height="68" rx="8" fill="#38bdf8"/><rect x="634" y="132" width="24" height="154" rx="8" fill="#f8d66d"/><rect x="682" y="176" width="24" height="110" rx="8" fill="#38bdf8"/>
      <path d="M470 134 C536 188 596 100 662 158 S730 210 770 140" fill="none" stroke="white" stroke-width="5" opacity="0.45"/>
    </g>
  <g font-family="Inter, Arial, sans-serif">
    <text x="72" y="96" fill="#f8d66d" font-size="20" font-weight="900" letter-spacing="8">IB MYP G6 MATH</text>
    <text x="72" y="148" fill="white" font-size="34" font-weight="900">Lesson 33</text>
    <text x="72" y="238" fill="white" font-size="52" font-weight="950">Data Displays and</text><text x="72" y="296" fill="white" font-size="52" font-weight="950">Variability</text>
    <rect x="72" y="438" width="112" height="6" rx="3" fill="#38bdf8"/>
    <text x="72" y="486" fill="rgba(255,255,255,0.72)" font-size="22" font-weight="800">Reasoning with data</text>
  </g>
</svg>