<svg xmlns="http://www.w3.org/2000/svg" width="960" height="540" viewBox="0 0 960 540" role="img" aria-label="Angles">
  <defs>
    <radialGradient id="glow" cx="78%" cy="30%" r="60%">
      <stop offset="0" stop-color="#38bdf8" stop-opacity="0.48"/>
      <stop offset="0.46" stop-color="#38bdf8" stop-opacity="0.14"/>
      <stop offset="1" stop-color="#06111f" stop-opacity="0"/>
    </radialGradient>
    <linearGradient id="base" x1="0" x2="1">
      <stop offset="0" stop-color="#06111f"/>
      <stop offset="1" stop-color="#05070a"/>
    </linearGradient>
  </defs>
  <rect width="960" height="540" rx="40" fill="url(#base)"/>
  <rect width="960" height="540" rx="40" fill="url(#glow)"/>
  <g opacity="0.11" stroke="#eaf6ff" stroke-width="1">
    <line x1="522" y1="72" x2="522" y2="456"/><line x1="576" y1="72" x2="576" y2="456"/><line x1="630" y1="72" x2="630" y2="456"/><line x1="684" y1="72" x2="684" y2="456"/><line x1="738" y1="72" x2="738" y2="456"/><line x1="792" y1="72" x2="792" y2="456"/><line x1="846" y1="72" x2="846" y2="456"/><line x1="900" y1="72" x2="900" y2="456"/>
    <line x1="496" y1="104" x2="894" y2="104"/><line x1="496" y1="162" x2="894" y2="162"/><line x1="496" y1="220" x2="894" y2="220"/><line x1="496" y1="278" x2="894" y2="278"/><line x1="496" y1="336" x2="894" y2="336"/><line x1="496" y1="394" x2="894" y2="394"/>
  </g>
  <g stroke-linecap="round" stroke-linejoin="round" fill="none">
      <polygon points="600,388 722,126 868,388" stroke="#38bdf8" stroke-width="14"/>
      <path d="M600 388 A96 96 0 0 1 654 300" stroke="#f8d66d" stroke-width="12"/>
      <line x1="722" y1="126" x2="722" y2="388" stroke="#eaf6ff" stroke-width="5" opacity="0.42"/>
    </g>
  <g font-family="Inter, Arial, sans-serif">
    <text x="72" y="240" fill="#eaf6ff" font-size="72" font-weight="950" letter-spacing="-1">Angles</text>
    <rect x="76" y="292" width="136" height="8" rx="4" fill="#38bdf8"/>
  </g>
</svg>