<svg xmlns="http://www.w3.org/2000/svg" width="960" height="540" viewBox="0 0 960 540" role="img" aria-label="Experimental Probability and Simulations">
  <defs>
    <radialGradient id="glow35" cx="74%" cy="26%" r="58%">
      <stop offset="0" stop-color="#34d399" stop-opacity="0.56"/>
      <stop offset="0.45" stop-color="#34d399" stop-opacity="0.12"/>
      <stop offset="1" stop-color="#071712" stop-opacity="0"/>
    </radialGradient>
    <linearGradient id="shade35" x1="0" x2="1">
      <stop offset="0" stop-color="#071712"/>
      <stop offset="1" stop-color="#050505"/>
    </linearGradient>
  </defs>
  <rect width="960" height="540" rx="40" fill="url(#shade35)"/>
  <rect width="960" height="540" rx="40" fill="url(#glow35)"/>
  <g opacity="0.14" stroke="white" stroke-width="1">
    <line x1="80" y1="68" x2="80" y2="472"/><line x1="156" y1="68" x2="156" y2="472"/><line x1="232" y1="68" x2="232" y2="472"/><line x1="308" y1="68" x2="308" y2="472"/><line x1="384" y1="68" x2="384" y2="472"/><line x1="460" y1="68" x2="460" y2="472"/><line x1="536" y1="68" x2="536" y2="472"/><line x1="612" y1="68" x2="612" y2="472"/><line x1="688" y1="68" x2="688" y2="472"/><line x1="764" y1="68" x2="764" y2="472"/><line x1="840" y1="68" x2="840" y2="472"/>
    <line x1="76" y1="86" x2="884" y2="86"/><line x1="76" y1="148" x2="884" y2="148"/><line x1="76" y1="210" x2="884" y2="210"/><line x1="76" y1="272" x2="884" y2="272"/><line x1="76" y1="334" x2="884" y2="334"/><line x1="76" y1="396" x2="884" y2="396"/><line x1="76" y1="458" x2="884" y2="458"/>
  </g>
  <g fill="none">
      <circle cx="620" cy="188" r="112" stroke="#34d399" stroke-width="8"/>
      <path d="M620 188 L718 134 A112 112 0 0 1 704 262 Z" fill="#93c5fd" opacity="0.8"/>
      <circle cx="620" cy="188" r="5" fill="white"/>
      <path d="M508 188 H732" stroke="white" stroke-width="3" opacity="0.4"/>
    </g>
  <g font-family="Inter, Arial, sans-serif">
    <text x="72" y="96" fill="#93c5fd" font-size="20" font-weight="900" letter-spacing="8">IB MYP G6 MATH</text>
    <text x="72" y="148" fill="white" font-size="34" font-weight="900">Lesson 35</text>
    <text x="72" y="238" fill="white" font-size="52" font-weight="950">Experimental Probability</text><text x="72" y="296" fill="white" font-size="52" font-weight="950">and Simulations</text>
    <rect x="72" y="438" width="112" height="6" rx="3" fill="#34d399"/>
    <text x="72" y="486" fill="rgba(255,255,255,0.72)" font-size="22" font-weight="800">Reasoning with data</text>
  </g>
</svg>