<svg xmlns="http://www.w3.org/2000/svg" width="960" height="540" viewBox="0 0 960 540" role="img" aria-label="Adding and Subtracting Integers with Movement Models">
  <defs>
    <radialGradient id="glow5" cx="74%" cy="26%" r="58%">
      <stop offset="0" stop-color="#38bdf8" stop-opacity="0.56"/>
      <stop offset="0.45" stop-color="#38bdf8" stop-opacity="0.12"/>
      <stop offset="1" stop-color="#07111f" stop-opacity="0"/>
    </radialGradient>
    <linearGradient id="shade5" x1="0" x2="1">
      <stop offset="0" stop-color="#07111f"/>
      <stop offset="1" stop-color="#050505"/>
    </linearGradient>
  </defs>
  <rect width="960" height="540" rx="40" fill="url(#shade5)"/>
  <rect width="960" height="540" rx="40" fill="url(#glow5)"/>
  <g opacity="0.14" stroke="white" stroke-width="1">
    <line x1="80" y1="68" x2="80" y2="472"/><line x1="156" y1="68" x2="156" y2="472"/><line x1="232" y1="68" x2="232" y2="472"/><line x1="308" y1="68" x2="308" y2="472"/><line x1="384" y1="68" x2="384" y2="472"/><line x1="460" y1="68" x2="460" y2="472"/><line x1="536" y1="68" x2="536" y2="472"/><line x1="612" y1="68" x2="612" y2="472"/><line x1="688" y1="68" x2="688" y2="472"/><line x1="764" y1="68" x2="764" y2="472"/><line x1="840" y1="68" x2="840" y2="472"/>
    <line x1="76" y1="86" x2="884" y2="86"/><line x1="76" y1="148" x2="884" y2="148"/><line x1="76" y1="210" x2="884" y2="210"/><line x1="76" y1="272" x2="884" y2="272"/><line x1="76" y1="334" x2="884" y2="334"/><line x1="76" y1="396" x2="884" y2="396"/><line x1="76" y1="458" x2="884" y2="458"/>
  </g>
  <g stroke-linecap="round" font-family="Inter, Arial, sans-serif">
      <line x1="432" y1="206" x2="758" y2="206" stroke="white" stroke-width="5" opacity="0.6"/>
      <g><line x1="472" y1="184" x2="472" y2="228" stroke="#f8d66d" stroke-width="5"/><text x="472" y="260" text-anchor="middle" fill="white" font-size="24" font-weight="900">-2</text></g><g><line x1="536" y1="184" x2="536" y2="228" stroke="#f8d66d" stroke-width="5"/><text x="536" y="260" text-anchor="middle" fill="white" font-size="24" font-weight="900">-1</text></g><g><line x1="600" y1="184" x2="600" y2="228" stroke="#38bdf8" stroke-width="5"/><text x="600" y="260" text-anchor="middle" fill="white" font-size="24" font-weight="900">0</text></g><g><line x1="664" y1="184" x2="664" y2="228" stroke="#f8d66d" stroke-width="5"/><text x="664" y="260" text-anchor="middle" fill="white" font-size="24" font-weight="900">1</text></g><g><line x1="728" y1="184" x2="728" y2="228" stroke="#f8d66d" stroke-width="5"/><text x="728" y="260" text-anchor="middle" fill="white" font-size="24" font-weight="900">2</text></g>
      <path d="M472 158 C520 112 588 112 636 158" fill="none" stroke="#38bdf8" stroke-width="7"/>
    </g>
  <g font-family="Inter, Arial, sans-serif">
    <text x="72" y="96" fill="#f8d66d" font-size="20" font-weight="900" letter-spacing="8">IB MYP G6 MATH</text>
    <text x="72" y="148" fill="white" font-size="34" font-weight="900">Lesson 5</text>
    <text x="72" y="238" fill="white" font-size="52" font-weight="950">Adding and Subtracting</text><text x="72" y="296" fill="white" font-size="52" font-weight="950">Integers with Movement</text><text x="72" y="354" fill="white" font-size="52" font-weight="950">Models</text>
    <rect x="72" y="438" width="112" height="6" rx="3" fill="#38bdf8"/>
    <text x="72" y="486" fill="rgba(255,255,255,0.72)" font-size="22" font-weight="800">Numerical and abstract reasoning</text>
  </g>
</svg>