<svg xmlns="http://www.w3.org/2000/svg" width="960" height="540" viewBox="0 0 960 540" role="img" aria-label="Prime Factors">
  <defs>
    <radialGradient id="glow" cx="78%" cy="30%" r="60%">
      <stop offset="0" stop-color="#34d399" stop-opacity="0.48"/>
      <stop offset="0.46" stop-color="#34d399" stop-opacity="0.14"/>
      <stop offset="1" stop-color="#071712" stop-opacity="0"/>
    </radialGradient>
    <linearGradient id="base" x1="0" x2="1">
      <stop offset="0" stop-color="#071712"/>
      <stop offset="1" stop-color="#05070a"/>
    </linearGradient>
  </defs>
  <rect width="960" height="540" rx="40" fill="url(#base)"/>
  <rect width="960" height="540" rx="40" fill="url(#glow)"/>
  <g opacity="0.11" stroke="#effdf7" stroke-width="1">
    <line x1="522" y1="72" x2="522" y2="456"/><line x1="576" y1="72" x2="576" y2="456"/><line x1="630" y1="72" x2="630" y2="456"/><line x1="684" y1="72" x2="684" y2="456"/><line x1="738" y1="72" x2="738" y2="456"/><line x1="792" y1="72" x2="792" y2="456"/><line x1="846" y1="72" x2="846" y2="456"/><line x1="900" y1="72" x2="900" y2="456"/>
    <line x1="496" y1="104" x2="894" y2="104"/><line x1="496" y1="162" x2="894" y2="162"/><line x1="496" y1="220" x2="894" y2="220"/><line x1="496" y1="278" x2="894" y2="278"/><line x1="496" y1="336" x2="894" y2="336"/><line x1="496" y1="394" x2="894" y2="394"/>
  </g>
  <g stroke-linecap="round" stroke-linejoin="round" fill="none">
    <path d="M608 118 L836 190 L780 398 L552 398 L496 190 Z" fill="#123225" stroke="#34d399" stroke-width="12"/>
    <circle cx="666" cy="264" r="74" stroke="#93c5fd" stroke-width="10"/>
    <path d="M616 264 H716 M666 214 V314" stroke="#effdf7" stroke-width="10"/>
  </g>
  <g font-family="Inter, Arial, sans-serif">
    <text x="72" y="240" fill="#effdf7" font-size="72" font-weight="950" letter-spacing="-1">Prime Factors</text>
    <rect x="76" y="292" width="136" height="8" rx="4" fill="#34d399"/>
  </g>
</svg>