<svg xmlns="http://www.w3.org/2000/svg" width="1200" height="675" viewBox="0 0 1200 675" role="img" aria-label="IB MYP G6 Math">
  <defs>
    <radialGradient id="a" cx="72%" cy="32%" r="52%"><stop offset="0" stop-color="#38bdf8" stop-opacity="0.55"/><stop offset="0.48" stop-color="#8b5cf6" stop-opacity="0.22"/><stop offset="1" stop-color="#050505" stop-opacity="0"/></radialGradient>
    <linearGradient id="b" x1="0" x2="1"><stop offset="0" stop-color="#07111f"/><stop offset="1" stop-color="#050505"/></linearGradient>
  </defs>
  <rect width="1200" height="675" rx="48" fill="url(#b)"/>
  <rect width="1200" height="675" rx="48" fill="url(#a)"/>
  <g opacity="0.13" stroke="white"><line x1="105" y1="92" x2="105" y2="585"/><line x1="187" y1="92" x2="187" y2="585"/><line x1="269" y1="92" x2="269" y2="585"/><line x1="351" y1="92" x2="351" y2="585"/><line x1="433" y1="92" x2="433" y2="585"/><line x1="515" y1="92" x2="515" y2="585"/><line x1="597" y1="92" x2="597" y2="585"/><line x1="679" y1="92" x2="679" y2="585"/><line x1="761" y1="92" x2="761" y2="585"/><line x1="843" y1="92" x2="843" y2="585"/><line x1="925" y1="92" x2="925" y2="585"/><line x1="1007" y1="92" x2="1007" y2="585"/><line x1="92" y1="118" x2="1100" y2="118"/><line x1="92" y1="188" x2="1100" y2="188"/><line x1="92" y1="258" x2="1100" y2="258"/><line x1="92" y1="328" x2="1100" y2="328"/><line x1="92" y1="398" x2="1100" y2="398"/><line x1="92" y1="468" x2="1100" y2="468"/><line x1="92" y1="538" x2="1100" y2="538"/></g>
  <g fill="none" stroke-linejoin="round">
    <polygon points="730,178 936,106 1040,190 834,266" fill="#102842" stroke="#38bdf8" stroke-width="8"/>
    <polygon points="834,266 1040,190 1040,410 834,490" fill="#0b1b2d" stroke="#f8d66d" stroke-width="8"/>
    <polygon points="730,178 834,266 834,490 730,394" fill="#122a43" stroke="white" stroke-width="4" opacity="0.85"/>
    <circle cx="826" cy="338" r="82" stroke="#38bdf8" stroke-width="7"/>
    <path d="M782 338 H870 M826 294 V382" stroke="#f8d66d" stroke-width="8" stroke-linecap="round"/>
  </g>
  <g font-family="Inter, Arial, sans-serif">
    <text x="86" y="122" fill="#7dd3fc" font-size="22" font-weight="900" letter-spacing="9">IB BIG MATH</text>
    <text x="86" y="255" fill="white" font-size="92" font-weight="950">IB MYP G6</text>
    <text x="86" y="350" fill="white" font-size="92" font-weight="950">Mathematics</text>
    <text x="90" y="430" fill="rgba(255,255,255,0.72)" font-size="30" font-weight="800">40 lessons · 800 practice questions · core MYP foundation</text>
    <rect x="90" y="482" width="154" height="8" rx="4" fill="#38bdf8"/>
    <text x="90" y="548" fill="rgba(255,255,255,0.82)" font-size="26" font-weight="850">A 40-lesson MYP Year 1 mathematics course with concept-first videos, visual models, 800 adaptive practice questions, hints, wrong-question review, and mastery rewards</text>
  </g>
</svg>