<svg xmlns="http://www.w3.org/2000/svg" width="1200" height="675" viewBox="0 0 1200 675" role="img" aria-label="IB MYP G6 Mathematics">
  <defs>
    <radialGradient id="a" cx="74%" cy="34%" r="58%"><stop offset="0" stop-color="#38bdf8" stop-opacity="0.52"/><stop offset="0.46" stop-color="#8b5cf6" stop-opacity="0.18"/><stop offset="1" stop-color="#050505" stop-opacity="0"/></radialGradient>
    <linearGradient id="b" x1="0" x2="1"><stop offset="0" stop-color="#06111f"/><stop offset="1" stop-color="#050505"/></linearGradient>
  </defs>
  <rect width="1200" height="675" rx="48" fill="url(#b)"/>
  <rect width="1200" height="675" rx="48" fill="url(#a)"/>
  <g opacity="0.1" stroke="#eaf6ff"><line x1="620" y1="100" x2="620" y2="560"/><line x1="674" y1="100" x2="674" y2="560"/><line x1="728" y1="100" x2="728" y2="560"/><line x1="782" y1="100" x2="782" y2="560"/><line x1="836" y1="100" x2="836" y2="560"/><line x1="890" y1="100" x2="890" y2="560"/><line x1="944" y1="100" x2="944" y2="560"/><line x1="998" y1="100" x2="998" y2="560"/><line x1="1052" y1="100" x2="1052" y2="560"/><line x1="1106" y1="100" x2="1106" y2="560"/><line x1="590" y1="128" x2="1100" y2="128"/><line x1="590" y1="190" x2="1100" y2="190"/><line x1="590" y1="252" x2="1100" y2="252"/><line x1="590" y1="314" x2="1100" y2="314"/><line x1="590" y1="376" x2="1100" y2="376"/><line x1="590" y1="438" x2="1100" y2="438"/><line x1="590" y1="500" x2="1100" y2="500"/></g>
  <g fill="none" stroke-linejoin="round">
    <polygon points="720,174 930,104 1042,184 830,262" fill="#102842" stroke="#38bdf8" stroke-width="11"/>
    <polygon points="830,262 1042,184 1042,420 830,502" fill="#0b1b2d" stroke="#f8d66d" stroke-width="11"/>
    <polygon points="720,174 830,262 830,502 720,398" fill="#122a43" stroke="#eaf6ff" stroke-width="6" opacity="0.82"/>
    <circle cx="822" cy="340" r="90" stroke="#38bdf8" stroke-width="10"/>
    <path d="M772 340 H872 M822 290 V390" stroke="#f8d66d" stroke-width="12" stroke-linecap="round"/>
  </g>
  <g font-family="Inter, Arial, sans-serif">
    <text x="86" y="280" fill="white" font-size="106" font-weight="950" letter-spacing="-2">IB MYP G6</text>
    <text x="86" y="388" fill="white" font-size="106" font-weight="950" letter-spacing="-2">Mathematics</text>
    <rect x="92" y="452" width="168" height="10" rx="5" fill="#38bdf8"/>
  </g>
</svg>