<svg width="1600" height="900" viewBox="0 0 1600 900" fill="none" xmlns="http://www.w3.org/2000/svg">
  <defs>
    <linearGradient id="bg" x1="116" y1="70" x2="1484" y2="850" gradientUnits="userSpaceOnUse">
      <stop stop-color="#06162E"/>
      <stop offset="0.45" stop-color="#0B3A65"/>
      <stop offset="1" stop-color="#050813"/>
    </linearGradient>
    <radialGradient id="cyan" cx="0" cy="0" r="1" gradientUnits="userSpaceOnUse" gradientTransform="translate(1220 170) rotate(135) scale(820 520)">
      <stop stop-color="#67E8F9"/>
      <stop offset="0.38" stop-color="#2563EB" stop-opacity="0.78"/>
      <stop offset="1" stop-color="#020617" stop-opacity="0"/>
    </radialGradient>
    <radialGradient id="gold" cx="0" cy="0" r="1" gradientUnits="userSpaceOnUse" gradientTransform="translate(310 720) rotate(-22) scale(680 430)">
      <stop stop-color="#FDE68A"/>
      <stop offset="0.34" stop-color="#F97316" stop-opacity="0.68"/>
      <stop offset="1" stop-color="#020617" stop-opacity="0"/>
    </radialGradient>
    <filter id="shadow" x="-140" y="-140" width="1880" height="1180" filterUnits="userSpaceOnUse" color-interpolation-filters="sRGB">
      <feDropShadow dx="0" dy="34" stdDeviation="34" flood-color="#000000" flood-opacity="0.44"/>
    </filter>
  </defs>
  <rect width="1600" height="900" rx="56" fill="url(#bg)"/>
  <rect width="1600" height="900" rx="56" fill="url(#cyan)" opacity="0.78"/>
  <rect width="1600" height="900" rx="56" fill="url(#gold)" opacity="0.64"/>
  <g opacity="0.24">
    <path d="M96 170H1504M96 330H1504M96 490H1504M96 650H1504" stroke="#BAE6FD" stroke-width="2"/>
    <path d="M260 90V810M540 90V810M820 90V810M1100 90V810M1380 90V810" stroke="#BAE6FD" stroke-width="2"/>
  </g>
  <g filter="url(#shadow)">
    <rect x="145" y="158" width="570" height="440" rx="48" fill="#06111F" fill-opacity="0.78" stroke="#7DD3FC" stroke-opacity="0.64" stroke-width="3"/>
    <text x="210" y="275" fill="#FFFFFF" font-family="Inter, Arial, sans-serif" font-size="86" font-weight="950">G4</text>
    <text x="210" y="337" fill="#BAE6FD" font-family="Inter, Arial, sans-serif" font-size="34" font-weight="900">FOUNDATION QUEST</text>
    <path d="M214 418H635" stroke="#38BDF8" stroke-width="9" stroke-linecap="round"/>
    <path d="M214 490H548" stroke="#FDE68A" stroke-width="9" stroke-linecap="round"/>
    <path d="M214 562H666" stroke="#C4B5FD" stroke-width="9" stroke-linecap="round"/>
  </g>
  <g filter="url(#shadow)">
    <path d="M1046 188L1300 330V614L1046 756L792 614V330L1046 188Z" fill="#DBEAFE" fill-opacity="0.18" stroke="#E0F2FE" stroke-width="5"/>
    <path d="M792 330L1046 472L1300 330M1046 472V756M1046 188V472" stroke="#E0F2FE" stroke-opacity="0.66" stroke-width="5"/>
    <circle cx="1046" cy="472" r="116" fill="#020617" fill-opacity="0.72" stroke="#FDE68A" stroke-width="5"/>
    <text x="958" y="500" fill="#FDE68A" font-family="Inter, Arial, sans-serif" font-size="70" font-weight="950">×</text>
    <text x="1078" y="500" fill="#BAE6FD" font-family="Inter, Arial, sans-serif" font-size="70" font-weight="950">÷</text>
    <path d="M952 586C1008 638 1092 640 1146 586" stroke="#67E8F9" stroke-width="9" stroke-linecap="round"/>
  </g>
  <text x="104" y="112" fill="#BAE6FD" font-family="Inter, Arial, sans-serif" font-size="30" font-weight="900">IB BIG MATH</text>
  <text x="104" y="756" fill="#FFFFFF" font-family="Inter, Arial, sans-serif" font-size="92" font-weight="950">Grade 4</text>
  <text x="104" y="820" fill="#DBEAFE" font-family="Inter, Arial, sans-serif" font-size="36" font-weight="850">40 lessons · 800 questions · visual foundation</text>
</svg>
