<svg width="1600" height="900" viewBox="0 0 1600 900" fill="none" xmlns="http://www.w3.org/2000/svg">
  <defs>
    <linearGradient id="bg" x1="92" y1="74" x2="1480" y2="850" gradientUnits="userSpaceOnUse">
      <stop stop-color="#120724"/>
      <stop offset="0.5" stop-color="#25105C"/>
      <stop offset="1" stop-color="#040712"/>
    </linearGradient>
    <radialGradient id="violet" cx="0" cy="0" r="1" gradientUnits="userSpaceOnUse" gradientTransform="translate(1180 175) rotate(140) scale(820 540)">
      <stop stop-color="#F0ABFC"/>
      <stop offset="0.38" stop-color="#7C3AED" stop-opacity="0.78"/>
      <stop offset="1" stop-color="#020617" stop-opacity="0"/>
    </radialGradient>
    <radialGradient id="teal" cx="0" cy="0" r="1" gradientUnits="userSpaceOnUse" gradientTransform="translate(320 705) rotate(-18) scale(720 450)">
      <stop stop-color="#5EEAD4"/>
      <stop offset="0.34" stop-color="#0EA5E9" stop-opacity="0.66"/>
      <stop offset="1" stop-color="#020617" stop-opacity="0"/>
    </radialGradient>
    <linearGradient id="ring" x1="802" y1="190" x2="1316" y2="710" gradientUnits="userSpaceOnUse">
      <stop stop-color="#F5D0FE"/>
      <stop offset="0.48" stop-color="#A78BFA"/>
      <stop offset="1" stop-color="#22D3EE"/>
    </linearGradient>
    <filter id="shadow" x="-140" y="-140" width="1880" height="1180" filterUnits="userSpaceOnUse" color-interpolation-filters="sRGB">
      <feDropShadow dx="0" dy="34" stdDeviation="34" flood-color="#000000" flood-opacity="0.46"/>
    </filter>
  </defs>
  <rect width="1600" height="900" rx="56" fill="url(#bg)"/>
  <rect width="1600" height="900" rx="56" fill="url(#violet)" opacity="0.78"/>
  <rect width="1600" height="900" rx="56" fill="url(#teal)" opacity="0.58"/>
  <g opacity="0.32">
    <path d="M160 690C342 548 464 570 584 626C724 692 836 590 956 438C1086 272 1228 246 1430 326" stroke="#E9D5FF" stroke-width="5"/>
    <path d="M160 748C346 632 476 660 600 706C752 762 898 650 1030 510C1154 380 1296 370 1430 424" stroke="#67E8F9" stroke-width="4"/>
  </g>
  <g filter="url(#shadow)">
    <rect x="145" y="158" width="585" height="440" rx="48" fill="#070816" fill-opacity="0.78" stroke="#C084FC" stroke-opacity="0.6" stroke-width="3"/>
    <text x="210" y="275" fill="#FFFFFF" font-family="Inter, Arial, sans-serif" font-size="86" font-weight="950">G5</text>
    <text x="210" y="337" fill="#E9D5FF" font-family="Inter, Arial, sans-serif" font-size="34" font-weight="900">40-LEVEL MATH QUEST</text>
    <text x="214" y="433" fill="#FDE68A" font-family="Inter, Arial, sans-serif" font-size="58" font-weight="950">ratio</text>
    <text x="430" y="433" fill="#67E8F9" font-family="Inter, Arial, sans-serif" font-size="58" font-weight="950">area</text>
    <text x="214" y="535" fill="#C4B5FD" font-family="Inter, Arial, sans-serif" font-size="58" font-weight="950">proof</text>
    <path d="M548 513H660M604 457V570" stroke="#34D399" stroke-width="10" stroke-linecap="round"/>
  </g>
  <g filter="url(#shadow)">
    <circle cx="1064" cy="452" r="246" fill="#080A18" fill-opacity="0.58" stroke="url(#ring)" stroke-width="8"/>
    <circle cx="1064" cy="452" r="158" stroke="#E9D5FF" stroke-opacity="0.62" stroke-width="4"/>
    <path d="M1064 206V698M818 452H1310M892 282C994 362 1126 362 1234 282M892 622C994 542 1126 542 1234 622" stroke="#F5D0FE" stroke-opacity="0.6" stroke-width="4"/>
    <path d="M930 486L1018 562L1200 350" stroke="#34D399" stroke-width="18" stroke-linecap="round" stroke-linejoin="round"/>
  </g>
  <text x="104" y="112" fill="#E9D5FF" font-family="Inter, Arial, sans-serif" font-size="30" font-weight="900">IB BIG MATH</text>
  <text x="104" y="756" fill="#FFFFFF" font-family="Inter, Arial, sans-serif" font-size="92" font-weight="950">Grade 5</text>
  <text x="104" y="820" fill="#DDD6FE" font-family="Inter, Arial, sans-serif" font-size="36" font-weight="850">40 lessons · 600 questions · full-score foundation</text>
</svg>
