<svg width="1600" height="900" viewBox="0 0 1600 900" fill="none" xmlns="http://www.w3.org/2000/svg">
  <defs>
    <linearGradient id="bg" x1="96" y1="72" x2="1488" y2="880" gradientUnits="userSpaceOnUse">
      <stop stop-color="#061A16"/><stop offset="0.48" stop-color="#124A43"/><stop offset="1" stop-color="#04070B"/>
    </linearGradient>
    <radialGradient id="glowA" cx="0" cy="0" r="1" gradientUnits="userSpaceOnUse" gradientTransform="translate(1180 210) rotate(138) scale(820 530)">
      <stop stop-color="#6EE7B7"/><stop offset="0.34" stop-color="#10B981"/><stop offset="1" stop-color="#04070B" stop-opacity="0"/>
    </radialGradient>
    <radialGradient id="glowB" cx="0" cy="0" r="1" gradientUnits="userSpaceOnUse" gradientTransform="translate(292 706) rotate(-25) scale(650 410)">
      <stop stop-color="#FDE68A"/><stop offset="0.34" stop-color="#F97316"/><stop offset="1" stop-color="#04070B" stop-opacity="0"/>
    </radialGradient>
    <filter id="shadow" x="-80" y="-80" width="1760" height="1060" filterUnits="userSpaceOnUse" color-interpolation-filters="sRGB">
      <feDropShadow dx="0" dy="34" stdDeviation="36" flood-color="#000" flood-opacity="0.45"/>
    </filter>
  </defs>
  <rect width="1600" height="900" rx="56" fill="url(#bg)"/>
  <rect width="1600" height="900" rx="56" fill="url(#glowA)" opacity="0.68"/>
  <rect width="1600" height="900" rx="56" fill="url(#glowB)" opacity="0.5"/>
  <g opacity="0.3">
    <path d="M120 220H1480M120 360H1480M120 500H1480M120 640H1480" stroke="#A7F3D0" stroke-width="2"/>
    <path d="M264 110V794M520 110V794M776 110V794M1032 110V794M1288 110V794" stroke="#A7F3D0" stroke-width="2"/>
  </g>
  <g filter="url(#shadow)">
    <rect x="160" y="186" width="590" height="428" rx="46" fill="#06110F" fill-opacity="0.74" stroke="#6EE7B7" stroke-opacity="0.56" stroke-width="3"/>
    <text x="224" y="296" fill="#FFFFFF" font-family="Inter, Arial, sans-serif" font-size="80" font-weight="950">G8</text>
    <text x="358" y="296" fill="#A7F3D0" font-family="Inter, Arial, sans-serif" font-size="32" font-weight="900" letter-spacing="8">PYP BRIDGE</text>
    <path d="M230 518L360 390L486 482L656 342" stroke="#FDE68A" stroke-width="12" stroke-linecap="round" stroke-linejoin="round"/>
    <circle cx="230" cy="518" r="16" fill="#FDE68A"/>
    <circle cx="360" cy="390" r="16" fill="#67E8F9"/>
    <circle cx="486" cy="482" r="16" fill="#C4B5FD"/>
    <circle cx="656" cy="342" r="16" fill="#34D399"/>
  </g>
  <g filter="url(#shadow)">
    <path d="M1080 202L1308 450L1080 698L852 450L1080 202Z" fill="#052E2B" fill-opacity="0.64" stroke="#A7F3D0" stroke-width="6"/>
    <path d="M930 450H1230M1080 290V610M974 344L1186 556M1186 344L974 556" stroke="#CCFBF1" stroke-opacity="0.68" stroke-width="4"/>
    <circle cx="1080" cy="450" r="98" fill="#020617" fill-opacity="0.66" stroke="#FDE68A" stroke-width="5"/>
    <text x="1000" y="472" fill="#FDE68A" font-family="Inter, Arial, sans-serif" font-size="56" font-weight="950">800</text>
  </g>
  <text x="104" y="112" fill="#A7F3D0" font-family="Inter, Arial, sans-serif" font-size="28" font-weight="900" letter-spacing="10">IB BIG MATH</text>
  <text x="104" y="762" fill="#FFFFFF" font-family="Inter, Arial, sans-serif" font-size="88" font-weight="950">G8 (PYP)</text>
  <text x="104" y="820" fill="#D1FAE5" font-family="Inter, Arial, sans-serif" font-size="34" font-weight="800">40 lessons · 800 questions · future-ready bridge</text>
</svg>
