<svg width="1200" height="698" viewBox="0 0 1200 698" fill="none" xmlns="http://www.w3.org/2000/svg">
  <defs>
    <linearGradient id="bg" x1="0" y1="0" x2="1200" y2="698" gradientUnits="userSpaceOnUse">
      <stop stop-color="#07111f"/>
      <stop offset="0.58" stop-color="#0b1726"/>
      <stop offset="1" stop-color="#05070a"/>
    </linearGradient>
    <radialGradient id="glow" cx="0" cy="0" r="1" gradientUnits="userSpaceOnUse" gradientTransform="translate(890 170) rotate(122) scale(430 360)">
      <stop stop-color="#38bdf8" stop-opacity="0.48"/>
      <stop offset="1" stop-color="#38bdf8" stop-opacity="0"/>
    </radialGradient>
  </defs>
  <rect width="1200" height="698" rx="46" fill="url(#bg)"/>
  <rect width="1200" height="698" rx="46" fill="url(#glow)"/>
  <g opacity="0.16">
    <path d="M118 124H1082M118 234H1082M118 344H1082M118 454H1082M118 564H1082" stroke="#E2E8F0"/>
    <path d="M190 82V616M360 82V616M530 82V616M700 82V616M870 82V616M1040 82V616" stroke="#E2E8F0"/>
  </g>
  <g transform="translate(120 118)">
    <rect width="330" height="178" rx="32" fill="#FFFFFF" fill-opacity="0.07" stroke="#FFFFFF" stroke-opacity="0.16"/>
    <text x="36" y="58" fill="#94A3B8" font-family="Inter, Arial, sans-serif" font-size="20" font-weight="800" letter-spacing="8">LARRY MATH</text>
    <text x="36" y="112" fill="#F8FAFC" font-family="Inter, Arial, sans-serif" font-size="48" font-weight="900">G3-G4</text>
    <text x="36" y="148" fill="#38BDF8" font-family="Inter, Arial, sans-serif" font-size="20" font-weight="800">Number sense</text>
  </g>
  <g transform="translate(198 405)">
    <path d="M0 64H720" stroke="#E2E8F0" stroke-width="10" stroke-linecap="round"/>
    <path d="M0 64H470" stroke="#38BDF8" stroke-width="10" stroke-linecap="round"/>
    <g fill="#E2E8F0" font-family="Inter, Arial, sans-serif" font-weight="900" font-size="28">
      <text x="-8" y="124">0</text>
      <text x="132" y="124">20</text>
      <text x="280" y="124">40</text>
      <text x="426" y="124">60</text>
      <text x="574" y="124">80</text>
      <text x="708" y="124">100</text>
    </g>
    <g stroke="#E2E8F0" stroke-width="6" stroke-linecap="round">
      <path d="M0 44V84"/>
      <path d="M144 44V84"/>
      <path d="M288 44V84"/>
      <path d="M432 44V84"/>
      <path d="M576 44V84"/>
      <path d="M720 44V84"/>
    </g>
    <circle cx="470" cy="64" r="30" fill="#07111F" stroke="#38BDF8" stroke-width="10"/>
  </g>
  <g transform="translate(735 145)">
    <rect x="0" y="0" width="300" height="240" rx="36" fill="#FFFFFF" fill-opacity="0.08" stroke="#FFFFFF" stroke-opacity="0.16"/>
    <g font-family="Inter, Arial, sans-serif" font-weight="900">
      <text x="44" y="104" fill="#FFFFFF" font-size="70">42</text>
      <text x="164" y="104" fill="#38BDF8" font-size="48">+ 18</text>
      <path d="M42 142H258" stroke="#FFFFFF" stroke-opacity="0.22" stroke-width="4" stroke-linecap="round"/>
      <text x="44" y="196" fill="#F8FAFC" font-size="46">60</text>
    </g>
  </g>
</svg>
