<svg width="1200" height="698" viewBox="0 0 1200 698" fill="none" xmlns="http://www.w3.org/2000/svg">
  <defs>
    <linearGradient id="bg" x1="0" y1="0" x2="1200" y2="698" gradientUnits="userSpaceOnUse">
      <stop stop-color="#100b20"/>
      <stop offset="0.6" stop-color="#161026"/>
      <stop offset="1" stop-color="#05050a"/>
    </linearGradient>
    <radialGradient id="glow" cx="0" cy="0" r="1" gradientUnits="userSpaceOnUse" gradientTransform="translate(878 156) rotate(120) scale(430 360)">
      <stop stop-color="#A78BFA" stop-opacity="0.48"/>
      <stop offset="1" stop-color="#A78BFA" stop-opacity="0"/>
    </radialGradient>
  </defs>
  <rect width="1200" height="698" rx="46" fill="url(#bg)"/>
  <rect width="1200" height="698" rx="46" fill="url(#glow)"/>
  <g opacity="0.13">
    <path d="M112 132H1088M112 260H1088M112 388H1088M112 516H1088" stroke="#E2E8F0"/>
    <path d="M232 88V610M424 88V610M616 88V610M808 88V610M1000 88V610" stroke="#E2E8F0"/>
  </g>
  <g transform="translate(116 112)">
    <rect width="382" height="180" rx="32" fill="#FFFFFF" fill-opacity="0.07" stroke="#FFFFFF" stroke-opacity="0.16"/>
    <text x="36" y="58" fill="#94A3B8" font-family="Inter, Arial, sans-serif" font-size="20" font-weight="800" letter-spacing="8">LARRY MATH</text>
    <text x="36" y="112" fill="#F8FAFC" font-family="Inter, Arial, sans-serif" font-size="48" font-weight="900">G5-G7</text>
    <text x="36" y="148" fill="#C4B5FD" font-family="Inter, Arial, sans-serif" font-size="20" font-weight="800">Geometry and spatial reasoning</text>
  </g>
  <g transform="translate(662 110)" stroke-linejoin="round">
    <path d="M236 18L412 118V320L236 420L60 320V118L236 18Z" fill="#FFFFFF" fill-opacity="0.05" stroke="#E9D5FF" stroke-opacity="0.75" stroke-width="5"/>
    <path d="M60 118L236 220L412 118M236 220V420" stroke="#E9D5FF" stroke-opacity="0.5" stroke-width="4"/>
    <circle cx="236" cy="220" r="74" fill="#0B0B12" stroke="#A78BFA" stroke-width="6"/>
    <path d="M200 242L236 172L272 242H200Z" fill="#A78BFA" fill-opacity="0.86"/>
  </g>
  <g transform="translate(160 405)">
    <path d="M0 116L118 18L236 116H0Z" fill="#FFFFFF" fill-opacity="0.1" stroke="#C4B5FD" stroke-width="5" stroke-linejoin="round"/>
    <path d="M276 16H454V116H276V16Z" fill="#FFFFFF" fill-opacity="0.08" stroke="#67E8F9" stroke-width="5"/>
    <text x="44" y="160" fill="#F8FAFC" font-family="Inter, Arial, sans-serif" font-size="30" font-weight="900">area</text>
    <text x="326" y="160" fill="#F8FAFC" font-family="Inter, Arial, sans-serif" font-size="30" font-weight="900">shape</text>
  </g>
</svg>
