<svg width="1600" height="900" viewBox="0 0 1600 900" fill="none" xmlns="http://www.w3.org/2000/svg">
  <defs>
    <linearGradient id="bg" x1="76" y1="70" x2="1510" y2="850" gradientUnits="userSpaceOnUse">
      <stop stop-color="#10071F"/><stop offset="0.48" stop-color="#1E3A8A"/><stop offset="1" stop-color="#020617"/>
    </linearGradient>
    <radialGradient id="a" cx="0" cy="0" r="1" gradientUnits="userSpaceOnUse" gradientTransform="translate(1164 162) rotate(140) scale(820 520)">
      <stop stop-color="#C4B5FD"/><stop offset="0.38" stop-color="#06B6D4" stop-opacity="0.72"/><stop offset="1" stop-color="#020617" stop-opacity="0"/>
    </radialGradient>
    <radialGradient id="b" cx="0" cy="0" r="1" gradientUnits="userSpaceOnUse" gradientTransform="translate(285 704) rotate(-20) scale(660 420)">
      <stop stop-color="#F0ABFC"/><stop offset="0.3" stop-color="#7C3AED" stop-opacity="0.6"/><stop offset="1" stop-color="#020617" stop-opacity="0"/>
    </radialGradient>
    <filter id="shadow" x="-120" y="-120" width="1840" height="1140" filterUnits="userSpaceOnUse" color-interpolation-filters="sRGB">
      <feDropShadow dx="0" dy="34" stdDeviation="34" flood-color="#000000" flood-opacity="0.42"/>
    </filter>
  </defs>
  <rect width="1600" height="900" rx="56" fill="url(#bg)"/>
  <rect width="1600" height="900" rx="56" fill="url(#a)" opacity="0.78"/>
  <rect width="1600" height="900" rx="56" fill="url(#b)" opacity="0.68"/>
  <g opacity="0.22">
    <path d="M126 214H1480M126 450H1480M126 686H1480" stroke="#E0E7FF" stroke-width="2"/>
    <path d="M302 96V812M606 96V812M910 96V812M1214 96V812" stroke="#E0E7FF" stroke-width="2"/>
  </g>
  <g filter="url(#shadow)">
    <rect x="150" y="178" width="540" height="430" rx="48" fill="#090B24" fill-opacity="0.78" stroke="#C4B5FD" stroke-opacity="0.72" stroke-width="3"/>
    <text x="218" y="294" fill="#FFFFFF" font-family="Inter, Arial, sans-serif" font-size="82" font-weight="950">G8</text>
    <text x="360" y="294" fill="#DDD6FE" font-family="Inter, Arial, sans-serif" font-size="30" font-weight="900">SCIENCE LAUNCH</text>
    <path d="M236 382H604" stroke="#22D3EE" stroke-width="8" stroke-linecap="round"/>
    <path d="M236 456H536" stroke="#C4B5FD" stroke-width="8" stroke-linecap="round"/>
    <path d="M236 530H628" stroke="#F0ABFC" stroke-width="8" stroke-linecap="round"/>
  </g>
  <g filter="url(#shadow)">
    <circle cx="1084" cy="430" r="224" fill="#0F172A" fill-opacity="0.72" stroke="#E0E7FF" stroke-width="4"/>
    <ellipse cx="1084" cy="430" rx="310" ry="92" transform="rotate(-22 1084 430)" stroke="#67E8F9" stroke-width="7"/>
    <ellipse cx="1084" cy="430" rx="268" ry="70" transform="rotate(28 1084 430)" stroke="#C4B5FD" stroke-width="7"/>
    <circle cx="1084" cy="430" r="72" fill="#111827" stroke="#F0ABFC" stroke-width="6"/>
    <circle cx="980" cy="348" r="24" fill="#22D3EE"/>
    <circle cx="1226" cy="492" r="28" fill="#C4B5FD"/>
    <path d="M934 580L986 520L1046 570L1108 498L1178 568L1234 514" stroke="#F0ABFC" stroke-width="7" stroke-linecap="round" stroke-linejoin="round"/>
  </g>
  <text x="104" y="112" fill="#C4B5FD" font-family="Inter, Arial, sans-serif" font-size="28" font-weight="900">NGSS SCIENCE</text>
  <text x="104" y="762" fill="#FFFFFF" font-family="Inter, Arial, sans-serif" font-size="88" font-weight="950">Grade 8</text>
  <text x="104" y="820" fill="#EEF2FF" font-family="Inter, Arial, sans-serif" font-size="34" font-weight="800">forces · waves · genetics · space systems · engineering</text>
</svg>
